# xmcd
# 
# Track frame offsets:
#     151
#     20045
#     47846
#     75647
#     99583
#     146136
#     169229
#     207836
# 
# Disc length: 3206
# 
# Revision: 0
# Processed by: cddbd v1.5.2PL0 Copyright (c) Steve Scherf et al.
# Submitted via: BonkEnc v1.0.8
# 
DISCID=6d0c8408
DTITLE=Loreena McKennitt - The Book Of Secrets
DYEAR=1997
DGENRE=Folklore
TTITLE0=Prologue
TTITLE1=The Mummers` Dance
TTITLE2=Skelling
TTITLE3=Marco Polo
TTITLE4=The Highwayman
TTITLE5=La Serenissima
TTITLE6=Night Ride Across The Caucasus
TTITLE7=Dante`s Praver
EXTD=
EXTT0=
EXTT1=
EXTT2=
EXTT3=
EXTT4=
EXTT5=
EXTT6=
EXTT7=
PLAYORDER=
